<svg width="171" height="63" viewBox="0 0 171 63" fill="none" xmlns="http://www.w3.org/2000/svg">
<path fill-rule="evenodd" clip-rule="evenodd" d="M26.05 61.857C28.5785 62.448 31.1664 62.7473 33.763 62.749C40.0369 62.7454 46.1837 60.9797 51.503 57.653C52.7654 56.8647 53.1518 55.2035 52.367 53.939C51.5794 52.6771 49.9196 52.2899 48.655 53.073C42.2861 57.0594 34.5869 58.332 27.274 56.607C19.9513 54.9227 13.607 50.3783 9.65599 43.987C1.41391 30.7054 5.47861 13.2584 18.742 4.987C19.3499 4.60982 19.7828 4.00633 19.9453 3.30961C20.1077 2.61289 19.9864 1.88016 19.608 1.273C18.8204 0.0105094 17.1598 -0.376793 15.895 0.407004C0.106004 10.2532 -4.73304 31.0221 5.07799 46.833C9.7818 54.4407 17.3335 59.8506 26.05 61.857ZM57.307 54.067C58.8666 54.067 60.131 52.8027 60.131 51.243C60.131 49.6833 58.8666 48.419 57.307 48.419C55.7473 48.419 54.483 49.6833 54.483 51.243C54.483 52.8027 55.7473 54.067 57.307 54.067Z" fill="#F04444"/>
<path fill-rule="evenodd" clip-rule="evenodd" d="M47.738 15.823H51.8V38.809H47.738V15.823ZM24.058 27.788C23.9777 24.7242 25.1595 21.7619 27.3267 19.5947C29.4939 17.4275 32.4562 16.2457 35.52 16.326C39.3728 16.2756 42.9698 18.2492 44.997 21.526L41.25 23.698C40.0666 21.6723 37.8644 20.4624 35.52 20.55C33.5804 20.4572 31.6929 21.1938 30.3288 22.5758C28.9647 23.9578 28.2529 25.8548 28.371 27.793C28.2597 29.7264 28.975 31.6161 30.3385 32.9914C31.7021 34.3666 33.5857 35.0978 35.52 35.003C37.8578 35.0967 40.0585 33.8996 41.25 31.886L44.997 34.059C42.9805 37.347 39.3765 39.3245 35.52 39.259C32.4562 39.3339 29.4956 38.1491 27.3294 35.9812C25.1631 33.8132 23.9807 30.8518 24.058 27.788ZM63.386 35.565C64.7425 35.6175 66.0461 35.0357 66.913 33.991L70.188 35.88C68.6235 38.0998 66.036 39.3696 63.323 39.249C58.033 39.249 54.695 35.629 54.695 30.937C54.6177 28.7095 55.4687 26.5498 57.0447 24.9737C58.6208 23.3977 60.7804 22.5467 63.008 22.624C67.668 22.624 70.974 26.308 70.974 30.937C70.9717 31.4966 70.9191 32.0548 70.817 32.605H58.945C59.514 34.684 61.246 35.565 63.386 35.565ZM66.913 29.456C66.5934 27.5685 64.9262 26.209 63.013 26.276C61.0316 26.14 59.2607 27.5052 58.888 29.456H66.913ZM88.014 23.065L82.032 38.81H77.404L71.421 23.065H75.892L79.702 34.086L83.544 23.065H88.014ZM97.206 35.565C98.5625 35.6175 99.8661 35.0357 100.733 33.991L104.008 35.88C102.444 38.1 99.8561 39.37 97.143 39.249C91.854 39.249 88.515 35.629 88.515 30.937C88.438 28.7095 89.2891 26.5501 90.8651 24.9741C92.4411 23.3981 94.6005 22.547 96.828 22.624C101.488 22.624 104.794 26.308 104.794 30.937C104.792 31.4966 104.739 32.0549 104.636 32.605H92.766C93.334 34.684 95.069 35.565 97.206 35.565ZM100.733 29.456C100.413 27.5685 98.7462 26.209 96.833 26.276C94.8516 26.14 93.0807 27.5052 92.708 29.456H100.733ZM134.904 20.924H128.953V38.809H124.608V20.924H118.689V16.767H134.904V20.924ZM150.303 23.065V38.808H146.24V36.951C144.989 38.4854 143.086 39.3382 141.108 39.251C136.92 39.251 133.457 35.631 133.457 30.939C133.457 26.247 136.92 22.626 141.108 22.626C143.086 22.539 144.989 23.3917 146.24 24.926V23.069L150.303 23.065ZM146.24 30.937C146.299 29.7536 145.859 28.5999 145.027 27.756C144.195 26.9122 143.048 26.4555 141.864 26.497C140.684 26.4619 139.544 26.9217 138.718 27.765C137.893 28.6084 137.458 29.7584 137.518 30.937C137.458 32.1154 137.893 33.2652 138.719 34.1083C139.544 34.9514 140.685 35.411 141.864 35.376C143.048 35.4169 144.194 34.9601 145.025 34.1165C145.857 33.273 146.296 32.1198 146.238 30.937H146.24ZM163.15 39.249C167.37 39.249 170.833 35.629 170.833 30.937C170.833 26.245 167.369 22.624 163.15 22.62C161.178 22.5188 159.279 23.3753 158.05 24.92V23.063H153.989V45.104H158.05V36.949C159.279 38.4938 161.178 39.3504 163.15 39.249ZM165.558 27.756C166.39 28.5999 166.83 29.7536 166.771 30.937H166.77C166.829 32.1201 166.389 33.2736 165.557 34.1173C164.726 34.9609 163.579 35.4175 162.395 35.376C161.216 35.4107 160.076 34.951 159.251 34.1079C158.425 33.2648 157.99 32.1152 158.05 30.937C157.99 29.7586 158.425 28.6087 159.25 27.7654C160.075 26.9221 161.216 26.4622 162.395 26.497C163.579 26.4555 164.726 26.9122 165.558 27.756ZM107.69 38.809H111.741L111.74 26.686H113.549C114.253 26.635 115.935 26.799 116.277 29.215L120.288 28.65C119.992 25.0762 116.883 22.401 113.305 22.641H107.69V38.809Z" fill="#101727"/>
</svg>
